<svg width="512" height="512" viewBox="0 0 300 300" fill="none" xmlns="http://www.w3.org/2000/svg">
  <path d="M58 29c0-12 9-21 21-21h142c12 0 21 9 21 21v51c0 9-5 17-13 21l-13 7-9 82c-5 45-29 79-57 94-28-15-52-49-57-94l-9-82-13-7c-8-4-13-12-13-21V29Z" fill="#fff" stroke="#101820" stroke-linejoin="round" stroke-width="9"/>
  <path d="M68 31c0-7 5-12 12-12h140c7 0 12 5 12 12v44c0 7-5 12-12 12H80c-7 0-12-5-12-12V31Z" fill="#f8fbff" stroke="#d9dee4" stroke-width="4"/>
  <text x="150" y="67" text-anchor="middle" fill="#b8d8ea" stroke="#101820" stroke-linejoin="round" stroke-width="3" font-family="Arial Black, Impact, sans-serif" font-size="58" font-weight="900" letter-spacing="2">GBC</text>
  <path d="M84 78c21 13 43 20 66 20s45-7 66-20l-8 25c-18 12-37 18-58 18s-40-6-58-18l-8-25Z" fill="#101820"/>
  <text x="150" y="101" text-anchor="middle" fill="#fff" font-family="Arial Black, Impact, sans-serif" font-size="13" font-weight="900" letter-spacing="3">HUSKIES</text>
  <circle cx="150" cy="164" r="80" fill="#d71920"/>
  <path d="M70 164h160M150 84v160" stroke="#101820" stroke-width="5"/>
  <path d="M98 96c28 35 38 80 31 140M202 96c-28 35-38 80-31 140M77 134c46 15 100 15 146 0" fill="none" stroke="#101820" stroke-width="5"/>
  <circle cx="150" cy="164" r="80" fill="none" stroke="#101820" stroke-width="4"/>
  <path d="M98 137 108 75l38 50-18 29-30-17Z" fill="#101820" stroke="#101820" stroke-linejoin="round" stroke-width="5"/>
  <path d="m202 137-10-62-38 50 18 29 30-17Z" fill="#101820" stroke="#101820" stroke-linejoin="round" stroke-width="5"/>
  <path d="m114 104 20 28-24-8 4-20Z" fill="#fff" opacity=".9"/>
  <path d="m186 104-20 28 24-8-4-20Z" fill="#fff" opacity=".9"/>
  <path d="M150 94c-35 0-62 27-64 64-3 48 30 85 64 96 34-11 67-48 64-96-2-37-29-64-64-64Z" fill="#101820" stroke="#fff" stroke-width="4"/>
  <path d="M106 157c3 41 23 69 44 84-33-6-55-34-59-69-1-13 4-20 15-15Z" fill="#fff"/>
  <path d="M194 157c-3 41-23 69-44 84 33-6 55-34 59-69 1-13-4-20-15-15Z" fill="#fff"/>
  <path d="M150 105c-20 19-31 47-31 76 0 30 14 51 31 61 17-10 31-31 31-61 0-29-11-57-31-76Z" fill="#f8fafc"/>
  <path d="M132 127c3 21 9 35 18 49 9-14 15-28 18-49-12 9-24 9-36 0Z" fill="#101820" opacity=".92"/>
  <path d="M123 167c-10 0-18 6-23 15 12-4 25-3 35 3l-12-18ZM177 167c10 0 18 6 23 15-12-4-25-3-35 3l12-18Z" fill="#101820"/>
  <path d="M132 160c-10-9-22-8-31 2 13-2 22 1 31 9v-11ZM168 160c10-9 22-8 31 2-13-2-22 1-31 9v-11Z" fill="#fff" opacity=".88"/>
  <ellipse cx="126" cy="160" rx="6" ry="5" fill="#b8d8ea"/>
  <ellipse cx="174" cy="160" rx="6" ry="5" fill="#b8d8ea"/>
  <ellipse cx="126" cy="160" rx="3" ry="3.5" fill="#101820"/>
  <ellipse cx="174" cy="160" rx="3" ry="3.5" fill="#101820"/>
  <path d="M139 195c6-6 16-6 22 0l-5 9h-12l-5-9Z" fill="#101820"/>
  <path d="M144 211c4 3 8 3 12 0M132 217c9 10 27 10 36 0" stroke="#101820" stroke-linecap="round" stroke-width="3"/>
</svg>
